<?xml version="1.0" encoding="utf-8"?>
<!-- Generator: Adobe Illustrator 24.0.1, SVG Export Plug-In . SVG Version: 6.00 Build 0)  -->
<svg version="1.1" id="Слой_1" xmlns="http://www.w3.org/2000/svg" xmlns:xlink="http://www.w3.org/1999/xlink" x="0px" y="0px"
	 viewBox="0 0 1920 1080" style="enable-background:new 0 0 1920 1080;" xml:space="preserve">
<style type="text/css">
	.st0{fill:#754C24;}
	.st1{fill:#603813;}
	.st2{fill:#8C6239;}
</style>
<g>
	<rect y="773" class="st0" width="1920" height="307"/>
</g>
<polygon class="st1" points="338,904 0,904 0,235 "/>
<polyline class="st2" points="202,525 293.03,435.29 340,389 443,575 357.82,729 304.81,729 491,559 671,615 671,691 625.09,729 
	371,793 202,860 76,542 151,280 252,315 291,380 "/>
<path class="st2" d="M1718,926h-339c63.67-129,127.33-258,191-387c72.67,11.33,145.33,22.67,218,34
	C1764.67,690.67,1741.33,808.33,1718,926z"/>
<path class="st2" d="M1428,960h-316c-10.33-96.33-20.67-192.67-31-289c83.67-46,167.33-92,251-138C1364,675.33,1396,817.67,1428,960
	z"/>
<path class="st2" d="M1710,730c-126,35-252,70-378,105c22.33-85,44.67-170,67-255c75.33-60.33,150.67-120.67,226-181
	C1653.33,509.33,1681.67,619.67,1710,730z"/>
<path class="st2" d="M1870,824h-216c0-104.67,0-209.33,0-314c55.67-42,111.33-84,167-126C1837.33,530.67,1853.67,677.33,1870,824z"
	/>
<path class="st2" d="M1479,695h-209c9.33-94,18.67-188,28-282c55.67,6,111.33,12,167,18C1469.67,519,1474.33,607,1479,695z"/>
<path class="st2" d="M1920,800h-132c12.33-158,24.67-316,37-474c31.67-25.33,63.33-50.67,95-76V800z"/>
</svg>
