<?xml version="1.0" encoding="utf-8"?>
<!-- Generator: Adobe Illustrator 24.0.1, SVG Export Plug-In . SVG Version: 6.00 Build 0)  -->
<svg version="1.1" id="Слой_1" xmlns="http://www.w3.org/2000/svg" xmlns:xlink="http://www.w3.org/1999/xlink" x="0px" y="0px"
	 viewBox="0 0 1920 1080" style="enable-background:new 0 0 1920 1080;" xml:space="preserve">
<style type="text/css">
	.st0{fill:#FFFFFF;}
</style>
<g>
	<g>
		<path d="M212.09,301.95c1.93,0,1.93-3,0-3C210.16,298.95,210.16,301.95,212.09,301.95L212.09,301.95z"/>
	</g>
</g>
<g>
	<g>
		<path d="M244.82,361.95c1.93,0,1.93-3,0-3C242.89,358.95,242.88,361.95,244.82,361.95L244.82,361.95z"/>
	</g>
</g>
<g>
	<g>
		<path d="M439.36,276.5c1.93,0,1.93-3,0-3C437.43,273.5,437.43,276.5,439.36,276.5L439.36,276.5z"/>
	</g>
</g>
<g>
	<g>
		<path d="M457.55,343.77c1.93,0,1.93-3,0-3C455.62,340.77,455.61,343.77,457.55,343.77L457.55,343.77z"/>
	</g>
</g>
<g>
	<g>
		<path d="M208.45,481.95c1.93,0,1.93-3,0-3C206.52,478.95,206.52,481.95,208.45,481.95L208.45,481.95z"/>
	</g>
</g>
<g>
	<g>
		<path d="M253.91,643.77c1.93,0,1.93-3,0-3C251.98,640.77,251.98,643.77,253.91,643.77L253.91,643.77z"/>
	</g>
</g>
<g>
	<g>
		<path d="M584.82,551.05c1.93,0,1.93-3,0-3C582.89,548.05,582.88,551.05,584.82,551.05L584.82,551.05z"/>
	</g>
</g>
<g>
	<g>
		<path d="M626.64,492.86c1.93,0,1.93-3,0-3C624.71,489.86,624.7,492.86,626.64,492.86L626.64,492.86z"/>
	</g>
</g>
<g>
	<g>
		<path class="st0" d="M946.64,316.5c1.93,0,1.93-3,0-3C944.71,313.5,944.7,316.5,946.64,316.5L946.64,316.5z"/>
	</g>
</g>
<g>
	<g>
		<path class="st0" d="M1012.09,263.77c1.93,0,1.93-3,0-3C1010.16,260.77,1010.16,263.77,1012.09,263.77L1012.09,263.77z"/>
	</g>
</g>
<g>
	<g>
		<path class="st0" d="M1230.27,292.86c1.93,0,1.93-3,0-3C1228.34,289.86,1228.34,292.86,1230.27,292.86L1230.27,292.86z"/>
	</g>
</g>
<g>
	<g>
		<path class="st0" d="M1297.55,398.32c1.93,0,1.93-3,0-3C1295.62,395.32,1295.61,398.32,1297.55,398.32L1297.55,398.32z"/>
	</g>
</g>
<g>
	<g>
		<path class="st0" d="M1466.64,349.23c1.93,0,1.93-3,0-3C1464.71,346.23,1464.7,349.23,1466.64,349.23L1466.64,349.23z"/>
	</g>
</g>
<g>
	<g>
		<path class="st0" d="M1364.82,231.05c1.93,0,1.93-3,0-3C1362.89,228.05,1362.88,231.05,1364.82,231.05L1364.82,231.05z"/>
	</g>
</g>
<g>
	<g>
		<path class="st0" d="M1186.64,103.77c1.93,0,1.93-3,0-3C1184.71,100.77,1184.7,103.77,1186.64,103.77L1186.64,103.77z"/>
	</g>
</g>
<g>
	<g>
		<path class="st0" d="M803,178.32c1.93,0,1.93-3,0-3C801.07,175.32,801.07,178.32,803,178.32L803,178.32z"/>
	</g>
</g>
<g>
	<g>
		<path class="st0" d="M563,87.41c1.93,0,1.93-3,0-3C561.07,84.41,561.07,87.41,563,87.41L563,87.41z"/>
	</g>
</g>
<g>
	<g>
		<path class="st0" d="M312.09,167.41c1.93,0,1.93-3,0-3C310.16,164.41,310.16,167.41,312.09,167.41L312.09,167.41z"/>
	</g>
</g>
<g>
	<g>
		<path class="st0" d="M192.09,111.05c1.93,0,1.93-3,0-3C190.16,108.05,190.16,111.05,192.09,111.05L192.09,111.05z"/>
	</g>
</g>
<g>
	<g>
		<path class="st0" d="M106.64,231.05c1.93,0,1.93-3,0-3C104.71,228.05,104.7,231.05,106.64,231.05L106.64,231.05z"/>
	</g>
</g>
<g>
	<g>
		<path class="st0" d="M844.82,380.14c1.93,0,1.93-3,0-3C842.89,377.14,842.88,380.14,844.82,380.14L844.82,380.14z"/>
	</g>
</g>
<g>
	<g>
		<path class="st0" d="M983,738.32c1.93,0,1.93-3,0-3C981.07,735.32,981.07,738.32,983,738.32L983,738.32z"/>
	</g>
</g>
<g>
	<g>
		<path class="st0" d="M533.91,769.23c1.93,0,1.93-3,0-3C531.98,766.23,531.98,769.23,533.91,769.23L533.91,769.23z"/>
	</g>
</g>
<g>
	<g>
		<path class="st0" d="M257.55,707.41c1.93,0,1.93-3,0-3C255.62,704.41,255.61,707.41,257.55,707.41L257.55,707.41z"/>
	</g>
</g>
<g>
	<g>
		<path class="st0" d="M359.36,565.59c1.93,0,1.93-3,0-3C357.43,562.59,357.43,565.59,359.36,565.59L359.36,565.59z"/>
	</g>
</g>
<g>
	<g>
		<path class="st0" d="M1095.73,616.5c1.93,0,1.93-3,0-3C1093.8,613.5,1093.79,616.5,1095.73,616.5L1095.73,616.5z"/>
	</g>
</g>
<g>
	<g>
		<path class="st0" d="M1484.82,774.68c1.93,0,1.93-3,0-3C1482.89,771.68,1482.88,774.68,1484.82,774.68L1484.82,774.68z"/>
	</g>
</g>
<g>
	<g>
		<path class="st0" d="M1683,818.32c1.93,0,1.93-3,0-3C1681.07,815.32,1681.07,818.32,1683,818.32L1683,818.32z"/>
	</g>
</g>
<g>
	<g>
		<path class="st0" d="M1713.91,661.95c1.93,0,1.93-3,0-3C1711.98,658.95,1711.98,661.95,1713.91,661.95L1713.91,661.95z"/>
	</g>
</g>
<g>
	<g>
		<path class="st0" d="M1612.09,621.95c1.93,0,1.93-3,0-3C1610.16,618.95,1610.16,621.95,1612.09,621.95L1612.09,621.95z"/>
	</g>
</g>
<g>
	<g>
		<path class="st0" d="M1673.91,563.77c1.93,0,1.93-3,0-3C1671.98,560.77,1671.98,563.77,1673.91,563.77L1673.91,563.77z"/>
	</g>
</g>
<g>
	<g>
		<path class="st0" d="M1755.73,440.14c1.93,0,1.93-3,0-3C1753.8,437.14,1753.79,440.14,1755.73,440.14L1755.73,440.14z"/>
	</g>
</g>
<g>
	<g>
		<path class="st0" d="M1630.27,374.68c1.93,0,1.93-3,0-3C1628.34,371.68,1628.34,374.68,1630.27,374.68L1630.27,374.68z"/>
	</g>
</g>
<g>
	<g>
		<path class="st0" d="M1423,147.41c1.93,0,1.93-3,0-3C1421.07,144.41,1421.07,147.41,1423,147.41L1423,147.41z"/>
	</g>
</g>
<g>
	<g>
		<path class="st0" d="M1835.73,158.32c1.93,0,1.93-3,0-3C1833.8,155.32,1833.79,158.32,1835.73,158.32L1835.73,158.32z"/>
	</g>
</g>
<g>
	<g>
		<path class="st0" d="M1828.45,72.86c1.93,0,1.93-3,0-3C1826.52,69.86,1826.52,72.86,1828.45,72.86L1828.45,72.86z"/>
	</g>
</g>
<g>
	<g>
		<path class="st0" d="M1408.45,69.23c1.93,0,1.93-3,0-3C1406.52,66.23,1406.52,69.23,1408.45,69.23L1408.45,69.23z"/>
	</g>
</g>
<g>
	<g>
		<path class="st0" d="M1257.55,329.23c1.93,0,1.93-3,0-3C1255.62,326.23,1255.61,329.23,1257.55,329.23L1257.55,329.23z"/>
	</g>
</g>
<g>
	<g>
		<path class="st0" d="M1041.18,1045.59c1.93,0,1.93-3,0-3C1039.25,1042.59,1039.25,1045.59,1041.18,1045.59L1041.18,1045.59z"/>
	</g>
</g>
<g>
	<g>
		<path class="st0" d="M644.82,965.59c1.93,0,1.93-3,0-3C642.89,962.59,642.88,965.59,644.82,965.59L644.82,965.59z"/>
	</g>
</g>
<g>
	<g>
		<path class="st0" d="M843,689.23c1.93,0,1.93-3,0-3C841.07,686.23,841.07,689.23,843,689.23L843,689.23z"/>
	</g>
</g>
<g>
	<g>
		<path class="st0" d="M413.91,856.5c1.93,0,1.93-3,0-3C411.98,853.5,411.98,856.5,413.91,856.5L413.91,856.5z"/>
	</g>
</g>
<g>
	<g>
		<path class="st0" d="M144.82,834.68c1.93,0,1.93-3,0-3C142.89,831.68,142.88,834.68,144.82,834.68L144.82,834.68z"/>
	</g>
</g>
<g>
	<g>
		<path class="st0" d="M410.27,563.77c1.93,0,1.93-3,0-3C408.34,560.77,408.34,563.77,410.27,563.77L410.27,563.77z"/>
	</g>
</g>
<g>
	<g>
		<path class="st0" d="M224.82,309.23c1.93,0,1.93-3,0-3C222.89,306.23,222.88,309.23,224.82,309.23L224.82,309.23z"/>
	</g>
</g>
<g>
	<g>
		<path class="st0" d="M253.91,196.5c1.93,0,1.93-3,0-3C251.98,193.5,251.98,196.5,253.91,196.5L253.91,196.5z"/>
	</g>
</g>
<g>
	<g>
		<path class="st0" d="M64.82,112.86c1.93,0,1.93-3,0-3C62.89,109.86,62.88,112.86,64.82,112.86L64.82,112.86z"/>
	</g>
</g>
<g>
	<g>
		<path class="st0" d="M870.27,125.59c1.93,0,1.93-3,0-3C868.34,122.59,868.34,125.59,870.27,125.59L870.27,125.59z"/>
	</g>
</g>
<g>
	<g>
		<path class="st0" d="M1015.73,425.59c1.93,0,1.93-3,0-3C1013.8,422.59,1013.79,425.59,1015.73,425.59L1015.73,425.59z"/>
	</g>
</g>
<g>
	<g>
		<path class="st0" d="M1266.64,498.32c1.93,0,1.93-3,0-3C1264.71,495.32,1264.7,498.32,1266.64,498.32L1266.64,498.32z"/>
	</g>
</g>
<g>
	<g>
		<path class="st0" d="M859.36,287.41c1.93,0,1.93-3,0-3C857.43,284.41,857.43,287.41,859.36,287.41L859.36,287.41z"/>
	</g>
</g>
<g>
	<g>
		<path class="st0" d="M1297.55,200.14c1.93,0,1.93-3,0-3C1295.62,197.14,1295.61,200.14,1297.55,200.14L1297.55,200.14z"/>
	</g>
</g>
</svg>
